  0
SECTION
  2
HEADER
  9
$ACADVER
  1
AC1009
  0
ENDSEC
  0
SECTION
  2
ENTITIES
  0
POLYLINE
  8
FR-4 (LOSSY)
 66
1
 39
0
 10
0.000000
 20
0.000000
 30
0.000000
 70
1
  0
VERTEX
  8
FR-4 (LOSSY)
 39
0
 10
0.000000
 20
0.000000
 30
0.000000
 70
0
 42
0
  0
VERTEX
  8
FR-4 (LOSSY)
 39
0
 10
24.000000
 20
0.000000
 30
0.000000
 70
0
 42
0
  0
VERTEX
  8
FR-4 (LOSSY)
 39
0
 10
24.000000
 20
67.000000
 30
0.000000
 70
0
 42
0
  0
VERTEX
  8
FR-4 (LOSSY)
 39
0
 10
0.000000
 20
67.000000
 30
0.000000
 70
0
 42
0
  0
SEQEND
  8
FR-4 (LOSSY)
  0
POLYLINE
  8
COPPER (ANNEALED)
 66
1
 39
0
 10
0.000000
 20
0.000000
 30
0.000000
 70
1
  0
VERTEX
  8
COPPER (ANNEALED)
 39
0
 10
12.750000
 20
54.616238
 30
0.000000
 70
0
 42
0
  0
VERTEX
  8
COPPER (ANNEALED)
 39
0
 10
12.750000
 20
60.832476
 30
0.000000
 70
0
 42
0
  0
VERTEX
  8
COPPER (ANNEALED)
 39
0
 10
11.250000
 20
60.832476
 30
0.000000
 70
0
 42
0
  0
VERTEX
  8
COPPER (ANNEALED)
 39
0
 10
11.250000
 20
54.616238
 30
0.000000
 70
0
 42
0
  0
SEQEND
  8
COPPER (ANNEALED)
  0
CIRCLE
  8
COPPER (ANNEALED)
 39
0
 10
12.000000
 20
60.232476
 30
0.000000
 40
0.6
  0
CIRCLE
  8
COPPER (ANNEALED)
 39
0
 10
-21.000000
 20
19.500000
 30
0.000000
 40
0.6
  0
CIRCLE
  8
COPPER (ANNEALED)
 39
0
 10
45.000000
 20
85.500000
 30
0.000000
 40
0.6
  0
CIRCLE
  8
COPPER (ANNEALED)
 39
0
 10
-21.000000
 20
12.100000
 30
0.000000
 40
0.6
  0
CIRCLE
  8
COPPER (ANNEALED)
 39
0
 10
45.000000
 20
92.900000
 30
0.000000
 40
0.6
  0
POLYLINE
  8
COPPER (ANNEALED)
 66
1
 39
0
 10
0.000000
 20
0.000000
 30
0.000000
 70
1
  0
VERTEX
  8
COPPER (ANNEALED)
 39
0
 10
14.100000
 20
0.000000
 30
0.000000
 70
0
 42
0
  0
VERTEX
  8
COPPER (ANNEALED)
 39
0
 10
14.100000
 20
5.000000
 30
0.000000
 70
0
 42
0
  0
VERTEX
  8
COPPER (ANNEALED)
 39
0
 10
9.900000
 20
5.000000
 30
0.000000
 70
0
 42
0
  0
VERTEX
  8
COPPER (ANNEALED)
 39
0
 10
9.900000
 20
0.000000
 30
0.000000
 70
0
 42
0
  0
SEQEND
  8
COPPER (ANNEALED)
  0
POLYLINE
  8
COPPER (ANNEALED)
 66
1
 39
0
 10
0.000000
 20
0.000000
 30
0.000000
 70
1
  0
VERTEX
  8
COPPER (ANNEALED)
 39
0
 10
13.300000
 20
5.000000
 30
0.000000
 70
0
 42
0
  0
VERTEX
  8
COPPER (ANNEALED)
 39
0
 10
13.300000
 20
49.000000
 30
0.000000
 70
0
 42
0
  0
VERTEX
  8
COPPER (ANNEALED)
 39
0
 10
10.700000
 20
49.000000
 30
0.000000
 70
0
 42
0
  0
VERTEX
  8
COPPER (ANNEALED)
 39
0
 10
10.700000
 20
5.000000
 30
0.000000
 70
0
 42
0
  0
SEQEND
  8
COPPER (ANNEALED)
  0
POLYLINE
  8
COPPER (ANNEALED)
 66
1
 39
0
 10
0.000000
 20
0.000000
 30
0.000000
 70
1
  0
VERTEX
  8
COPPER (ANNEALED)
 39
0
 10
12.750000
 20
49.000000
 30
0.000000
 70
0
 42
0
  0
VERTEX
  8
COPPER (ANNEALED)
 39
0
 10
12.750000
 20
54.616238
 30
0.000000
 70
0
 42
0
  0
VERTEX
  8
COPPER (ANNEALED)
 39
0
 10
11.250000
 20
54.616238
 30
0.000000
 70
0
 42
0
  0
VERTEX
  8
COPPER (ANNEALED)
 39
0
 10
11.250000
 20
49.000000
 30
0.000000
 70
0
 42
0
  0
SEQEND
  8
COPPER (ANNEALED)
  0
CIRCLE
  8
COPPER (ANNEALED)
 39
0
 10
-21.000000
 20
85.500000
 30
0.000000
 40
0.6
  0
CIRCLE
  8
COPPER (ANNEALED)
 39
0
 10
45.000000
 20
19.500000
 30
0.000000
 40
0.6
  0
CIRCLE
  8
COPPER (ANNEALED)
 39
0
 10
-28.400000
 20
85.500000
 30
0.000000
 40
0.6
  0
CIRCLE
  8
COPPER (ANNEALED)
 39
0
 10
52.400000
 20
19.500000
 30
0.000000
 40
0.6
  0
ENDSEC
  0
EOF
